<?xml version="1.0" encoding="UTF-8"?>
<svg width="43px" height="60px" viewBox="0 0 43 60" version="1.1" xmlns="http://www.w3.org/2000/svg" xmlns:xlink="http://www.w3.org/1999/xlink">
    <!-- Generator: sketchtool 50.2 (55047) - http://www.bohemiancoding.com/sketch -->
    <title>0CF81A12-5E2B-44FD-ACE3-FC59D12AA06E</title>
    <desc>Created with sketchtool.</desc>
    <defs></defs>
    <g id="Page-1" stroke="none" stroke-width="1" fill="none" fill-rule="evenodd">
        <g id="2-Track-Selection" transform="translate(-171.000000, -171.000000)" fill="#231F20">
            <path d="M191.259615,178.39726 C190.118258,178.39726 189.192308,177.477492 189.192308,176.342094 C189.192308,175.20744 190.118258,174.287671 191.259615,174.287671 C192.400225,174.287671 193.326923,175.20744 193.326923,176.342094 C193.326923,177.477492 192.400225,178.39726 191.259615,178.39726 Z M199.962679,172.628349 L197.122313,171 L190.360117,172.021759 L180.578181,178.656813 L180.578181,182.059841 L182.592212,184.240332 L193.496536,185.548796 L195.588062,187.366864 L194.510082,188.865898 L177.96595,188.865898 L171,195.671954 L171,206.731795 L171.870744,207.582552 L171.870744,213.537851 L174.6876,210.632516 L183.190413,219.493151 L183.190413,203.328767 L186.673388,199.925739 L203.217519,199.925739 L206.527216,196.217289 L206.527216,191.319481 L206.527216,189.855328 L206.557692,189.855328 L206.557692,184.91328 L206.557692,180.354924 L199.962679,172.628349 Z M214,205.520548 L214,210.616438 L212.346154,210.616438 C210.278019,210.616438 209.599115,211.349397 209.743827,213.583945 C209.905077,216.071589 210.838673,221.046877 210.730346,224.679397 C210.622019,228.311918 207.956846,231 204.903846,231 L199.942308,231 L199.942308,225.90411 L202.423077,225.90411 C204.430019,225.922795 204.845962,224.002493 204.576385,221.349233 C204.447385,220.083753 204.146385,215.961178 203.608058,212.30063 C203.230981,209.739096 203.187981,205.520548 206.557692,205.520548 L211.519231,205.520548 L214,205.520548 Z M196.753868,205.520548 L196.753868,208.068493 C196.903666,210.393918 197.849319,211.23389 199.942308,211.23389 C199.942308,211.23389 199.931429,214.999753 199.942308,215.771781 C197.575665,215.953534 197.277743,217.763425 197.145519,220.276548 L196.747173,225.558438 C196.497789,229.402438 193.985533,231 190.895842,231 L186.711538,231 L186.711538,225.90411 L187.548399,225.90411 L188.38526,225.90411 C190.129278,225.90411 190.84312,225.503233 190.992081,222.722575 C190.992081,222.722575 190.995429,212.487479 190.895842,210.616438 L188.38526,210.616438 L188.38526,205.520548 L196.753868,205.520548 Z" id="Python"></path>
        </g>
    </g>
</svg>