<?xml version="1.0" encoding="UTF-8"?>
<svg width="60px" height="53px" viewBox="0 0 60 53" version="1.1" xmlns="http://www.w3.org/2000/svg" xmlns:xlink="http://www.w3.org/1999/xlink">
    <!-- Generator: sketchtool 50.2 (55047) - http://www.bohemiancoding.com/sketch -->
    <title>AF1BDF9A-D68C-46BE-AE70-548F0326EE0C</title>
    <desc>Created with sketchtool.</desc>
    <defs></defs>
    <g id="Page-1" stroke="none" stroke-width="1" fill="none" fill-rule="evenodd">
        <g id="2-Track-Selection" transform="translate(-324.000000, -176.000000)" fill="#231F20">
            <path d="M357.136056,176 L369.417465,188.737015 L378.273803,185.369342 L370.062254,176 L357.136056,176 Z M338.317183,176 L330.109014,185.367657 L338.965352,188.737015 L351.244225,176 L338.317183,176 Z M343.231268,190.360203 L354.189296,194.528099 L365.151549,190.360203 L354.189296,178.99199 L343.231268,190.360203 Z M351.887324,214.680229 L351.887324,197.833439 L331.655493,190.415798 L351.887324,214.680229 Z M356.112676,197.833439 L356.112676,214.680229 L376.722254,190.419167 L356.112676,197.833439 Z M362.895211,213.841259 L360.338028,216.364908 L382.309859,216.364908 L382.309859,213.837889 L362.895211,213.841259 Z M326.534366,216.364908 L346.816901,216.364908 L344.894366,213.907804 L326.534366,213.837889 L326.534366,216.364908 Z M378.084507,220.576605 L378.929577,224.788303 L368.788732,224.788303 L367.943662,220.576605 L364.562535,220.576605 L365.407606,224.788303 L356.112676,224.788303 L355.267606,220.576605 L351.887324,220.576605 L352.732394,224.788303 L342.590704,224.788303 L341.745634,220.576605 L338.366197,220.576605 L339.211268,224.788303 L329.915493,224.788303 L329.070423,220.576605 L325.690141,220.576605 L326.534366,224.788303 L324,224.788303 L324,229 L383.874085,228.813001 L384,224.788303 L382.309859,224.788303 L381.464789,220.576605 L378.084507,220.576605 Z" id="Ruby"></path>
        </g>
    </g>
</svg>